<svg xmlns="http://www.w3.org/2000/svg" viewBox="0 0 100 92" width="1000" height="920">
  <path d="M50 88 C50 88 6 60 6 30 C6 13 19 6 30 6 C40 6 47 13 50 20 C53 13 60 6 70 6 C81 6 94 13 94 30 C94 60 50 88 50 88 Z" fill="#f5a623"/>
  <path d="M24.560 57.958Q22.486 57.958 21.432 57.278Q20.378 56.598 20.344 55.034Q20.344 54.694 20.718 54.694Q21.024 54.694 21.653 54.847Q22.282 55 24.050 55Q27.042 55 29.558 54.371Q32.074 53.742 33.927 52.671Q35.780 51.600 36.800 50.257Q37.820 48.914 37.820 47.452Q37.820 46.126 37.021 45.327Q36.222 44.528 34.913 44.103Q33.604 43.678 32.057 43.542Q30.510 43.406 29.014 43.406Q28.368 43.406 27.722 43.423Q27.076 43.440 26.498 43.440Q25.750 46.024 25.036 48.778Q24.322 51.532 23.540 54.184Q22.520 54.184 21.772 53.640Q21.024 53.096 21.024 52.314Q21.024 52.008 21.143 51.515Q21.262 51.022 21.500 50.342Q21.704 49.696 22.197 48.200Q22.690 46.704 23.370 44.664Q24.050 42.624 24.883 40.363Q25.716 38.102 26.617 35.926Q27.518 33.750 28.402 32.016Q27.042 32.322 26.158 32.730Q25.274 33.138 24.764 33.444Q24.254 33.750 23.982 33.750Q23.778 33.750 23.455 33.512Q23.132 33.274 22.877 32.968Q22.622 32.662 22.622 32.424Q24.458 31.676 26.430 31.098Q28.402 30.520 31.190 30.520Q32.414 30.520 33.876 30.707Q35.338 30.894 36.664 31.455Q37.990 32.016 38.857 33.121Q39.724 34.226 39.724 36.062Q39.724 37.524 39.095 38.595Q38.466 39.666 37.412 40.431Q36.358 41.196 35.100 41.689Q33.842 42.182 32.618 42.488Q34.726 42.760 36.137 43.355Q37.548 43.950 38.381 44.732Q39.214 45.514 39.571 46.347Q39.928 47.180 39.928 47.962Q39.928 49.968 38.874 51.566Q37.820 53.164 36.103 54.354Q34.386 55.544 32.329 56.343Q30.272 57.142 28.232 57.550Q26.192 57.958 24.560 57.958M26.838 42.148Q28.742 42.080 30.578 41.706Q32.414 41.332 33.893 40.601Q35.372 39.870 36.256 38.697Q37.140 37.524 37.140 35.790Q37.140 34.158 36.256 33.274Q35.372 32.390 33.944 32.050Q32.516 31.710 30.884 31.710L30.748 31.710Q29.592 33.988 28.640 36.657Q27.688 39.326 26.838 42.148" fill="#fff"/>
  <path d="M47.870 54.740Q46.590 54.740 45.620 54.230Q44.650 53.720 44.120 52.880Q43.590 52.040 43.590 51.020Q43.590 50.120 43.970 49.260Q44.350 48.400 45.030 47.680Q45.710 46.960 46.650 46.470Q47.590 45.980 48.690 45.820Q47.990 45.180 47.620 44.400Q47.250 43.620 47.250 42.820Q47.250 41.740 47.790 40.780Q48.330 39.820 49.320 39.220Q50.310 38.620 51.610 38.620Q52.810 38.620 53.440 39.190Q54.070 39.760 54.070 40.840Q54.070 41.600 53.810 42.330Q53.550 43.060 53.170 43.530Q52.790 44 52.410 44Q52.130 44 51.880 43.750Q51.630 43.500 51.450 43.180Q52.190 42.580 52.680 41.920Q53.170 41.260 53.170 40.560Q53.170 40 52.850 39.650Q52.530 39.300 51.830 39.300Q50.930 39.300 50.310 39.820Q49.690 40.340 49.370 41.170Q49.050 42 49.050 42.980Q49.050 43.440 49.140 44Q49.230 44.560 49.550 45.130Q49.870 45.700 50.510 46.220Q49.070 46.440 48.010 47.210Q46.950 47.980 46.370 49Q45.790 50.020 45.790 51.020Q45.790 51.620 46.040 52.260Q46.290 52.900 46.870 53.340Q47.450 53.780 48.390 53.780Q49.470 53.780 50.450 53.280Q51.430 52.780 52.240 51.930Q53.050 51.080 53.570 50.020Q54.090 48.960 54.230 47.840Q53.850 47.860 53.500 47.900Q53.150 47.940 52.700 48.020Q52.250 48.100 51.510 48.240Q51.530 47.220 52.190 46.880Q52.850 46.540 53.770 46.540Q54.410 46.540 54.940 46.620Q55.470 46.700 56 46.790Q56.530 46.880 57.190 46.880Q56.870 47.540 56.620 47.670Q56.370 47.800 56.130 47.800Q55.770 47.800 55.520 47.810Q55.270 47.820 55.010 47.820Q54.870 49.180 54.240 50.420Q53.610 51.660 52.630 52.640Q51.650 53.620 50.430 54.180Q49.210 54.740 47.870 54.740" fill="#fff"/>
  <path d="M60.837 57.958Q59.817 57.414 59.545 56.836Q59.273 56.258 59.273 55.850Q59.273 54.932 59.936 53.385Q60.599 51.838 61.721 49.832Q62.843 47.826 64.271 45.650Q63.217 45.582 62.265 45.548Q61.313 45.514 59.817 45.514L59.273 45.514Q59.749 44.290 60.786 43.797Q61.823 43.304 63.217 43.304Q63.795 43.304 64.424 43.372Q65.053 43.440 65.733 43.508Q67.433 41.060 69.082 38.884Q70.731 36.708 72.210 34.957Q73.689 33.206 74.845 32.084Q76.477 30.452 77.225 30.452Q77.701 30.452 78.296 30.826Q78.891 31.200 79.537 31.778Q79.197 32.050 78.670 33.172Q78.143 34.294 77.548 36.011Q76.953 37.728 76.358 39.768Q75.763 41.808 75.287 43.916Q74.811 46.024 74.522 47.945Q74.233 49.866 74.233 51.328Q74.233 52.688 74.505 53.351Q74.777 54.014 75.423 54.014Q76.205 54.014 77.361 52.824Q78.517 51.634 79.945 48.948L80.557 49.594Q79.503 52.382 77.820 54.184Q76.137 55.986 74.233 55.986Q72.601 55.986 71.921 54.575Q71.241 53.164 71.241 50.716Q71.241 49.934 71.343 48.948Q71.445 47.962 71.683 46.500Q70.187 46.262 69.031 46.126Q67.875 45.990 66.821 45.854Q65.189 48.744 63.659 51.838Q62.129 54.932 60.837 57.958M72.023 44.834Q72.465 42.828 73.060 40.771Q73.655 38.714 74.318 36.827Q74.981 34.940 75.627 33.444Q74.607 34.260 73.349 35.790Q72.091 37.320 70.714 39.394Q69.337 41.468 67.909 43.916Q68.929 44.120 69.949 44.358Q70.969 44.596 72.023 44.834" fill="#fff"/>
</svg>